<?xml version="1.0" encoding="UTF-8" standalone="no"?>
<!DOCTYPE svg PUBLIC "-//W3C//DTD SVG 1.1//EN"
 "http://www.w3.org/Graphics/SVG/1.1/DTD/svg11.dtd">
<!-- Generated by graphviz version 15.1.0 (20260618.0150)
 -->
<!-- Title: LISFLOOD_pipeline Pages: 1 -->
<svg width="1696pt" height="919pt"
 viewBox="0.00 0.00 1696.00 919.00" xmlns="http://www.w3.org/2000/svg" xmlns:xlink="http://www.w3.org/1999/xlink">
<g id="graph0" class="graph" transform="scale(1 1) rotate(0) translate(4 915.05)">
<title>LISFLOOD_pipeline</title>
<polygon fill="white" stroke="none" points="-4,4 -4,-915.05 1692.47,-915.05 1692.47,4 -4,4"/>
<g id="clust1" class="cluster">
<title>cluster_topo</title>
<path fill="white" stroke="#93c5fd" d="M317.88,-643C317.88,-643 671.12,-643 671.12,-643 677.12,-643 683.12,-649 683.12,-655 683.12,-655 683.12,-887 683.12,-887 683.12,-893 677.12,-899 671.12,-899 671.12,-899 317.88,-899 317.88,-899 311.88,-899 305.88,-893 305.88,-887 305.88,-887 305.88,-655 305.88,-655 305.88,-649 311.88,-643 317.88,-643"/>
<text xml:space="preserve" text-anchor="middle" x="494.5" y="-883.6" font-family="Helvetica,sans-Serif" font-size="12.00" fill="#1e3a8a">Topography</text>
</g>
<g id="clust2" class="cluster">
<title>cluster_chan</title>
<path fill="white" stroke="#93c5fd" d="M589,-515C589,-515 707.25,-515 707.25,-515 713.25,-515 719.25,-521 719.25,-527 719.25,-527 719.25,-582 719.25,-582 719.25,-588 713.25,-594 707.25,-594 707.25,-594 589,-594 589,-594 583,-594 577,-588 577,-582 577,-582 577,-527 577,-527 577,-521 583,-515 589,-515"/>
<text xml:space="preserve" text-anchor="middle" x="648.12" y="-578.6" font-family="Helvetica,sans-Serif" font-size="12.00" fill="#1e3a8a">Channels</text>
</g>
<g id="clust3" class="cluster">
<title>cluster_lc</title>
<path fill="white" stroke="#93c5fd" d="M598.38,-340C598.38,-340 970.88,-340 970.88,-340 976.88,-340 982.88,-346 982.88,-352 982.88,-352 982.88,-401 982.88,-401 982.88,-407 976.88,-413 970.88,-413 970.88,-413 598.38,-413 598.38,-413 592.38,-413 586.38,-407 586.38,-401 586.38,-401 586.38,-352 586.38,-352 586.38,-346 592.38,-340 598.38,-340"/>
<text xml:space="preserve" text-anchor="middle" x="784.62" y="-397.6" font-family="Helvetica,sans-Serif" font-size="12.00" fill="#1e3a8a">Land cover</text>
</g>
<g id="clust4" class="cluster">
<title>cluster_soil</title>
<path fill="white" stroke="#93c5fd" d="M879.25,-421C879.25,-421 972.75,-421 972.75,-421 978.75,-421 984.75,-427 984.75,-433 984.75,-433 984.75,-488 984.75,-488 984.75,-494 978.75,-500 972.75,-500 972.75,-500 879.25,-500 879.25,-500 873.25,-500 867.25,-494 867.25,-488 867.25,-488 867.25,-433 867.25,-433 867.25,-427 873.25,-421 879.25,-421"/>
<text xml:space="preserve" text-anchor="middle" x="926" y="-484.6" font-family="Helvetica,sans-Serif" font-size="12.00" fill="#1e3a8a">Soil hydraulics</text>
</g>
<g id="clust5" class="cluster">
<title>cluster_met</title>
<path fill="white" stroke="#93c5fd" d="M608.12,-8C608.12,-8 959.25,-8 959.25,-8 965.25,-8 971.25,-14 971.25,-20 971.25,-20 971.25,-191 971.25,-191 971.25,-197 965.25,-203 959.25,-203 959.25,-203 608.12,-203 608.12,-203 602.12,-203 596.12,-197 596.12,-191 596.12,-191 596.12,-20 596.12,-20 596.12,-14 602.12,-8 608.12,-8"/>
<text xml:space="preserve" text-anchor="middle" x="783.69" y="-187.6" font-family="Helvetica,sans-Serif" font-size="12.00" fill="#1e3a8a">Meteo forcing</text>
</g>
<!-- srtm -->
<g id="node1" class="node">
<title>srtm</title>
<path fill="#ccfbf1" stroke="#0f766e" d="M121,-775.16C121,-777.26 93.88,-778.97 60.5,-778.97 27.12,-778.97 0,-777.26 0,-775.16 0,-775.16 0,-740.84 0,-740.84 0,-738.74 27.12,-737.03 60.5,-737.03 93.88,-737.03 121,-738.74 121,-740.84 121,-740.84 121,-775.16 121,-775.16"/>
<path fill="none" stroke="#0f766e" d="M121,-775.16C121,-773.05 93.88,-771.34 60.5,-771.34 27.12,-771.34 0,-773.05 0,-775.16"/>
<text xml:space="preserve" text-anchor="middle" x="60.5" y="-759.75" font-family="Helvetica,sans-Serif" font-size="10.00">SRTM 30 m DEM</text>
<text xml:space="preserve" text-anchor="middle" x="60.5" y="-748.5" font-family="Helvetica,sans-Serif" font-size="10.00">(USGS/SRTMGL1_003)</text>
</g>
<!-- area -->
<g id="node9" class="node">
<title>area</title>
<path fill="#dbeafe" stroke="#1d4ed8" d="M369.62,-748C369.62,-748 325.88,-748 325.88,-748 319.88,-748 313.88,-742 313.88,-736 313.88,-736 313.88,-724 313.88,-724 313.88,-718 319.88,-712 325.88,-712 325.88,-712 369.62,-712 369.62,-712 375.62,-712 381.62,-718 381.62,-724 381.62,-724 381.62,-736 381.62,-736 381.62,-742 375.62,-748 369.62,-748"/>
<text xml:space="preserve" text-anchor="middle" x="347.75" y="-726.12" font-family="Helvetica,sans-Serif" font-size="10.00">area / mask</text>
</g>
<!-- srtm&#45;&gt;area -->
<g id="edge1" class="edge">
<title>srtm&#45;&gt;area</title>
<path fill="none" stroke="#64748b" d="M121.49,-744C134.45,-741.43 148.13,-739.07 161,-737.5 209.05,-731.62 264.55,-730.06 302.29,-729.77"/>
<polygon fill="#64748b" stroke="#64748b" points="301.9,-733.27 311.89,-729.72 301.87,-726.27 301.9,-733.27"/>
<text xml:space="preserve" text-anchor="middle" x="202.25" y="-749.4" font-family="Helvetica,sans-Serif" font-size="8.00" fill="#334155">topographyMapsScript</text>
<text xml:space="preserve" text-anchor="middle" x="202.25" y="-740.4" font-family="Helvetica,sans-Serif" font-size="8.00" fill="#334155">reproject → 300 m grid</text>
</g>
<!-- dem -->
<g id="node10" class="node">
<title>dem</title>
<path fill="#dbeafe" stroke="#1d4ed8" d="M367.75,-687C367.75,-687 327.75,-687 327.75,-687 321.75,-687 315.75,-681 315.75,-675 315.75,-675 315.75,-663 315.75,-663 315.75,-657 321.75,-651 327.75,-651 327.75,-651 367.75,-651 367.75,-651 373.75,-651 379.75,-657 379.75,-663 379.75,-663 379.75,-675 379.75,-675 379.75,-681 373.75,-687 367.75,-687"/>
<text xml:space="preserve" text-anchor="middle" x="347.75" y="-665.12" font-family="Helvetica,sans-Serif" font-size="10.00">dem_300m</text>
</g>
<!-- srtm&#45;&gt;dem -->
<g id="edge2" class="edge">
<title>srtm&#45;&gt;dem</title>
<path fill="none" stroke="#64748b" d="M106.02,-737.51C123.01,-730.14 142.69,-722.14 161,-716 209.3,-699.8 266.29,-686.16 304.29,-677.82"/>
<polygon fill="#64748b" stroke="#64748b" points="304.93,-681.26 313.96,-675.72 303.45,-674.42 304.93,-681.26"/>
<text xml:space="preserve" text-anchor="middle" x="202.25" y="-717.4" font-family="Helvetica,sans-Serif" font-size="8.00" fill="#334155">10×10 block mean</text>
</g>
<!-- ldd -->
<g id="node11" class="node">
<title>ldd</title>
<path fill="#dbeafe" stroke="#1d4ed8" d="M663.12,-870C663.12,-870 633.12,-870 633.12,-870 627.12,-870 621.12,-864 621.12,-858 621.12,-858 621.12,-846 621.12,-846 621.12,-840 627.12,-834 633.12,-834 633.12,-834 663.12,-834 663.12,-834 669.12,-834 675.12,-840 675.12,-846 675.12,-846 675.12,-858 675.12,-858 675.12,-864 669.12,-870 663.12,-870"/>
<text xml:space="preserve" text-anchor="middle" x="648.12" y="-848.12" font-family="Helvetica,sans-Serif" font-size="10.00">ldd</text>
</g>
<!-- srtm&#45;&gt;ldd -->
<g id="edge3" class="edge">
<title>srtm&#45;&gt;ldd</title>
<path fill="none" stroke="#64748b" d="M85.54,-779.36C104.92,-795.81 133.4,-818.33 161,-834 211.99,-862.95 225.92,-871.91 283.5,-883 401.18,-905.66 543.46,-877.91 609.75,-861.88"/>
<polygon fill="#64748b" stroke="#64748b" points="610.52,-865.29 619.38,-859.49 608.83,-858.5 610.52,-865.29"/>
<text xml:space="preserve" text-anchor="middle" x="347.75" y="-903.45" font-family="Helvetica,sans-Serif" font-size="8.00" fill="#334155">pysheds: fill_pits</text>
<text xml:space="preserve" text-anchor="middle" x="347.75" y="-894.45" font-family="Helvetica,sans-Serif" font-size="8.00" fill="#334155">→ flowdir</text>
</g>
<!-- grad -->
<g id="node12" class="node">
<title>grad</title>
<path fill="#dbeafe" stroke="#1d4ed8" d="M362.75,-809C362.75,-809 332.75,-809 332.75,-809 326.75,-809 320.75,-803 320.75,-797 320.75,-797 320.75,-785 320.75,-785 320.75,-779 326.75,-773 332.75,-773 332.75,-773 362.75,-773 362.75,-773 368.75,-773 374.75,-779 374.75,-785 374.75,-785 374.75,-797 374.75,-797 374.75,-803 368.75,-809 362.75,-809"/>
<text xml:space="preserve" text-anchor="middle" x="347.75" y="-787.12" font-family="Helvetica,sans-Serif" font-size="10.00">gradient</text>
</g>
<!-- srtm&#45;&gt;grad -->
<g id="edge4" class="edge">
<title>srtm&#45;&gt;grad</title>
<path fill="none" stroke="#64748b" d="M121.3,-764.92C177.93,-771.47 261.21,-781.1 309.11,-786.64"/>
<polygon fill="#64748b" stroke="#64748b" points="308.64,-790.11 318.98,-787.79 309.45,-783.16 308.64,-790.11"/>
<text xml:space="preserve" text-anchor="middle" x="202.25" y="-779.83" font-family="Helvetica,sans-Serif" font-size="8.00" fill="#334155">slope</text>
</g>
<!-- elvstd -->
<g id="node13" class="node">
<title>elvstd</title>
<path fill="#dbeafe" stroke="#1d4ed8" d="M362.75,-870C362.75,-870 332.75,-870 332.75,-870 326.75,-870 320.75,-864 320.75,-858 320.75,-858 320.75,-846 320.75,-846 320.75,-840 326.75,-834 332.75,-834 332.75,-834 362.75,-834 362.75,-834 368.75,-834 374.75,-840 374.75,-846 374.75,-846 374.75,-858 374.75,-858 374.75,-864 368.75,-870 362.75,-870"/>
<text xml:space="preserve" text-anchor="middle" x="347.75" y="-848.12" font-family="Helvetica,sans-Serif" font-size="10.00">elvstd</text>
</g>
<!-- srtm&#45;&gt;elvstd -->
<g id="edge5" class="edge">
<title>srtm&#45;&gt;elvstd</title>
<path fill="none" stroke="#64748b" d="M117.18,-777.92C131.43,-782.93 146.76,-788.24 161,-793 212.32,-810.17 272.03,-828.92 309.6,-840.57"/>
<polygon fill="#64748b" stroke="#64748b" points="308.49,-843.89 319.07,-843.5 310.56,-837.2 308.49,-843.89"/>
<text xml:space="preserve" text-anchor="middle" x="202.25" y="-820.86" font-family="Helvetica,sans-Serif" font-size="8.00" fill="#334155">sub&#45;pixel std&#45;dev</text>
</g>
<!-- chan -->
<g id="node14" class="node">
<title>chan</title>
<path fill="#dbeafe" stroke="#1d4ed8" d="M699.25,-564.88C699.25,-564.88 597,-564.88 597,-564.88 591,-564.88 585,-558.88 585,-552.88 585,-552.88 585,-535.12 585,-535.12 585,-529.12 591,-523.12 597,-523.12 597,-523.12 699.25,-523.12 699.25,-523.12 705.25,-523.12 711.25,-529.12 711.25,-535.12 711.25,-535.12 711.25,-552.88 711.25,-552.88 711.25,-558.88 705.25,-564.88 699.25,-564.88"/>
<text xml:space="preserve" text-anchor="middle" x="648.12" y="-551.38" font-family="Helvetica,sans-Serif" font-size="10.00">chan, changrad,</text>
<text xml:space="preserve" text-anchor="middle" x="648.12" y="-540.12" font-family="Helvetica,sans-Serif" font-size="10.00">chanman, chanleng,</text>
<text xml:space="preserve" text-anchor="middle" x="648.12" y="-528.88" font-family="Helvetica,sans-Serif" font-size="10.00">chanbw, chans, chanbnkf</text>
</g>
<!-- srtm&#45;&gt;chan -->
<g id="edge9" class="edge">
<title>srtm&#45;&gt;chan</title>
<path fill="none" stroke="#64748b" d="M89.65,-736.62C109.26,-722.05 136.24,-702.64 161,-687 213.65,-653.75 225.11,-640.65 283.5,-619 297.1,-613.96 471.35,-578.93 573.61,-558.57"/>
<polygon fill="#64748b" stroke="#64748b" points="574.18,-562.03 583.31,-556.64 572.82,-555.16 574.18,-562.03"/>
<text xml:space="preserve" text-anchor="middle" x="347.75" y="-629.4" font-family="Helvetica,sans-Serif" font-size="8.00" fill="#334155">width/depth</text>
<text xml:space="preserve" text-anchor="middle" x="347.75" y="-620.4" font-family="Helvetica,sans-Serif" font-size="8.00" fill="#334155">geomorph. eqns</text>
</g>
<!-- merit -->
<g id="node2" class="node">
<title>merit</title>
<path fill="#ccfbf1" stroke="#0f766e" d="M386.88,-551.16C386.88,-553.26 369.34,-554.97 347.75,-554.97 326.16,-554.97 308.62,-553.26 308.62,-551.16 308.62,-551.16 308.62,-516.84 308.62,-516.84 308.62,-514.74 326.16,-513.03 347.75,-513.03 369.34,-513.03 386.88,-514.74 386.88,-516.84 386.88,-516.84 386.88,-551.16 386.88,-551.16"/>
<path fill="none" stroke="#0f766e" d="M386.88,-551.16C386.88,-549.05 369.34,-547.34 347.75,-547.34 326.16,-547.34 308.62,-549.05 308.62,-551.16"/>
<text xml:space="preserve" text-anchor="middle" x="347.75" y="-535.75" font-family="Helvetica,sans-Serif" font-size="10.00">MERIT Hydro</text>
<text xml:space="preserve" text-anchor="middle" x="347.75" y="-524.5" font-family="Helvetica,sans-Serif" font-size="10.00">(flow dir / acc)</text>
</g>
<!-- merit&#45;&gt;chan -->
<g id="edge7" class="edge">
<title>merit&#45;&gt;chan</title>
<path fill="none" stroke="#64748b" d="M387.15,-535.29C434,-536.86 514.24,-539.55 573.22,-541.52"/>
<polygon fill="#64748b" stroke="#64748b" points="573.09,-545.02 583.2,-541.86 573.32,-538.02 573.09,-545.02"/>
<text xml:space="preserve" text-anchor="middle" x="498.5" y="-550.88" font-family="Helvetica,sans-Serif" font-size="8.00" fill="#334155">channnels.py</text>
<text xml:space="preserve" text-anchor="middle" x="498.5" y="-541.88" font-family="Helvetica,sans-Serif" font-size="8.00" fill="#334155">pysheds flowdir</text>
</g>
<!-- drain -->
<g id="node3" class="node">
<title>drain</title>
<path fill="#ccfbf1" stroke="#0f766e" d="M385.75,-484.16C385.75,-486.26 368.72,-487.97 347.75,-487.97 326.78,-487.97 309.75,-486.26 309.75,-484.16 309.75,-484.16 309.75,-449.84 309.75,-449.84 309.75,-447.74 326.78,-446.03 347.75,-446.03 368.72,-446.03 385.75,-447.74 385.75,-449.84 385.75,-449.84 385.75,-484.16 385.75,-484.16"/>
<path fill="none" stroke="#0f766e" d="M385.75,-484.16C385.75,-482.05 368.72,-480.34 347.75,-480.34 326.78,-480.34 309.75,-482.05 309.75,-484.16"/>
<text xml:space="preserve" text-anchor="middle" x="347.75" y="-468.75" font-family="Helvetica,sans-Serif" font-size="10.00">CoreStack</text>
<text xml:space="preserve" text-anchor="middle" x="347.75" y="-457.5" font-family="Helvetica,sans-Serif" font-size="10.00">drainage lines</text>
</g>
<!-- drain&#45;&gt;chan -->
<g id="edge8" class="edge">
<title>drain&#45;&gt;chan</title>
<path fill="none" stroke="#64748b" d="M386.15,-475.36C425.74,-484.36 489.99,-499.34 545,-514 554.34,-516.49 564.13,-519.21 573.79,-521.97"/>
<polygon fill="#64748b" stroke="#64748b" points="572.58,-525.27 583.16,-524.67 574.52,-518.54 572.58,-525.27"/>
<text xml:space="preserve" text-anchor="middle" x="498.5" y="-524.4" font-family="Helvetica,sans-Serif" font-size="8.00" fill="#334155">rasterize</text>
<text xml:space="preserve" text-anchor="middle" x="498.5" y="-515.4" font-family="Helvetica,sans-Serif" font-size="8.00" fill="#334155">drainage network</text>
</g>
<!-- lulc_src -->
<g id="node4" class="node">
<title>lulc_src</title>
<path fill="#ccfbf1" stroke="#0f766e" d="M400,-383.16C400,-385.26 376.58,-386.97 347.75,-386.97 318.92,-386.97 295.5,-385.26 295.5,-383.16 295.5,-383.16 295.5,-348.84 295.5,-348.84 295.5,-346.74 318.92,-345.03 347.75,-345.03 376.58,-345.03 400,-346.74 400,-348.84 400,-348.84 400,-383.16 400,-383.16"/>
<path fill="none" stroke="#0f766e" d="M400,-383.16C400,-381.05 376.58,-379.34 347.75,-379.34 318.92,-379.34 295.5,-381.05 295.5,-383.16"/>
<text xml:space="preserve" text-anchor="middle" x="347.75" y="-367.75" font-family="Helvetica,sans-Serif" font-size="10.00">CoreStack LULC v3</text>
<text xml:space="preserve" text-anchor="middle" x="347.75" y="-356.5" font-family="Helvetica,sans-Serif" font-size="10.00">(2024–25)</text>
</g>
<!-- lulc_src&#45;&gt;chan -->
<g id="edge10" class="edge">
<title>lulc_src&#45;&gt;chan</title>
<path fill="none" stroke="#64748b" stroke-dasharray="5,2" d="M393.19,-386.2C433.76,-405.25 494.86,-435.52 545,-467 568.54,-481.78 593.48,-500.52 612.82,-515.81"/>
<polygon fill="#64748b" stroke="#64748b" points="610.37,-518.33 620.37,-521.84 614.74,-512.86 610.37,-518.33"/>
<text xml:space="preserve" text-anchor="middle" x="498.5" y="-477.4" font-family="Helvetica,sans-Serif" font-size="8.00" fill="#334155">Manning n</text>
<text xml:space="preserve" text-anchor="middle" x="498.5" y="-468.4" font-family="Helvetica,sans-Serif" font-size="8.00" fill="#334155">by land cover</text>
</g>
<!-- frac -->
<g id="node15" class="node">
<title>frac</title>
<path fill="#dbeafe" stroke="#1d4ed8" d="M689.88,-384C689.88,-384 606.38,-384 606.38,-384 600.38,-384 594.38,-378 594.38,-372 594.38,-372 594.38,-360 594.38,-360 594.38,-354 600.38,-348 606.38,-348 606.38,-348 689.88,-348 689.88,-348 695.88,-348 701.88,-354 701.88,-360 701.88,-360 701.88,-372 701.88,-372 701.88,-378 695.88,-384 689.88,-384"/>
<text xml:space="preserve" text-anchor="middle" x="648.12" y="-367.75" font-family="Helvetica,sans-Serif" font-size="10.00">fracforest, fracother,</text>
<text xml:space="preserve" text-anchor="middle" x="648.12" y="-356.5" font-family="Helvetica,sans-Serif" font-size="10.00">fracsealed, fracwater</text>
</g>
<!-- lulc_src&#45;&gt;frac -->
<g id="edge11" class="edge">
<title>lulc_src&#45;&gt;frac</title>
<path fill="none" stroke="#64748b" d="M400.38,-366C450.99,-366 528.27,-366 582.84,-366"/>
<polygon fill="#64748b" stroke="#64748b" points="582.6,-369.5 592.6,-366 582.6,-362.5 582.6,-369.5"/>
<text xml:space="preserve" text-anchor="middle" x="498.5" y="-377.9" font-family="Helvetica,sans-Serif" font-size="8.00" fill="#334155">frac_lulc</text>
<text xml:space="preserve" text-anchor="middle" x="498.5" y="-368.9" font-family="Helvetica,sans-Serif" font-size="8.00" fill="#334155">reproject → area fractions</text>
</g>
<!-- lcpar -->
<g id="node16" class="node">
<title>lcpar</title>
<path fill="#dbeafe" stroke="#1d4ed8" d="M962.88,-384C962.88,-384 889.12,-384 889.12,-384 883.12,-384 877.12,-378 877.12,-372 877.12,-372 877.12,-360 877.12,-360 877.12,-354 883.12,-348 889.12,-348 889.12,-348 962.88,-348 962.88,-348 968.88,-348 974.88,-354 974.88,-360 974.88,-360 974.88,-372 974.88,-372 974.88,-378 968.88,-384 962.88,-384"/>
<text xml:space="preserve" text-anchor="middle" x="926" y="-367.75" font-family="Helvetica,sans-Serif" font-size="10.00">cropcoef, crgrnum,</text>
<text xml:space="preserve" text-anchor="middle" x="926" y="-356.5" font-family="Helvetica,sans-Serif" font-size="10.00">mannings, soildep</text>
</g>
<!-- lulc_src&#45;&gt;lcpar -->
<g id="edge12" class="edge">
<title>lulc_src&#45;&gt;lcpar</title>
<path fill="none" stroke="#64748b" d="M400.39,-351.94C446.34,-340.2 515.58,-324.39 577,-318 639.88,-311.46 656.44,-310.77 719.25,-318 769.38,-323.77 825.04,-337.2 865.82,-348.39"/>
<polygon fill="#64748b" stroke="#64748b" points="864.88,-351.76 875.45,-351.07 866.76,-345.02 864.88,-351.76"/>
<text xml:space="preserve" text-anchor="middle" x="648.12" y="-328.4" font-family="Helvetica,sans-Serif" font-size="8.00" fill="#334155">lulc_cover</text>
<text xml:space="preserve" text-anchor="middle" x="648.12" y="-319.4" font-family="Helvetica,sans-Serif" font-size="8.00" fill="#334155">lookup tables</text>
</g>
<!-- soil_src -->
<g id="node5" class="node">
<title>soil_src</title>
<path fill="#ccfbf1" stroke="#0f766e" d="M700.38,-467.16C700.38,-469.26 676.96,-470.97 648.12,-470.97 619.29,-470.97 595.88,-469.26 595.88,-467.16 595.88,-467.16 595.88,-432.84 595.88,-432.84 595.88,-430.74 619.29,-429.03 648.12,-429.03 676.96,-429.03 700.38,-430.74 700.38,-432.84 700.38,-432.84 700.38,-467.16 700.38,-467.16"/>
<path fill="none" stroke="#0f766e" d="M700.38,-467.16C700.38,-465.05 676.96,-463.34 648.12,-463.34 619.29,-463.34 595.88,-465.05 595.88,-467.16"/>
<text xml:space="preserve" text-anchor="middle" x="648.12" y="-451.75" font-family="Helvetica,sans-Serif" font-size="10.00">SoilGrids ISRIC</text>
<text xml:space="preserve" text-anchor="middle" x="648.12" y="-440.5" font-family="Helvetica,sans-Serif" font-size="10.00">(sand/silt/clay/SOC)</text>
</g>
<!-- soilhyd -->
<g id="node17" class="node">
<title>soilhyd</title>
<path fill="#dbeafe" stroke="#1d4ed8" d="M964.75,-470.88C964.75,-470.88 887.25,-470.88 887.25,-470.88 881.25,-470.88 875.25,-464.88 875.25,-458.88 875.25,-458.88 875.25,-441.12 875.25,-441.12 875.25,-435.12 881.25,-429.12 887.25,-429.12 887.25,-429.12 964.75,-429.12 964.75,-429.12 970.75,-429.12 976.75,-435.12 976.75,-441.12 976.75,-441.12 976.75,-458.88 976.75,-458.88 976.75,-464.88 970.75,-470.88 964.75,-470.88"/>
<text xml:space="preserve" text-anchor="middle" x="926" y="-457.38" font-family="Helvetica,sans-Serif" font-size="10.00">thetas, thetar,</text>
<text xml:space="preserve" text-anchor="middle" x="926" y="-446.12" font-family="Helvetica,sans-Serif" font-size="10.00">alpha, lambda, ksat</text>
<text xml:space="preserve" text-anchor="middle" x="926" y="-434.88" font-family="Helvetica,sans-Serif" font-size="10.00">(layers 1 &amp; 2)</text>
</g>
<!-- soil_src&#45;&gt;soilhyd -->
<g id="edge14" class="edge">
<title>soil_src&#45;&gt;soilhyd</title>
<path fill="none" stroke="#64748b" d="M700.69,-450C746.89,-450 814.73,-450 863.69,-450"/>
<polygon fill="#64748b" stroke="#64748b" points="863.57,-453.5 873.57,-450 863.57,-446.5 863.57,-453.5"/>
<text xml:space="preserve" text-anchor="middle" x="793.25" y="-470.9" font-family="Helvetica,sans-Serif" font-size="8.00" fill="#334155">soil_preprocessing</text>
<text xml:space="preserve" text-anchor="middle" x="793.25" y="-461.9" font-family="Helvetica,sans-Serif" font-size="8.00" fill="#334155">thickness&#45;weighted avg</text>
<text xml:space="preserve" text-anchor="middle" x="793.25" y="-452.9" font-family="Helvetica,sans-Serif" font-size="8.00" fill="#334155">→ Van Genuchten PTF</text>
</g>
<!-- chirps -->
<g id="node6" class="node">
<title>chirps</title>
<path fill="#ccfbf1" stroke="#0f766e" d="M381.62,-138.16C381.62,-140.26 366.44,-141.97 347.75,-141.97 329.06,-141.97 313.88,-140.26 313.88,-138.16 313.88,-138.16 313.88,-103.84 313.88,-103.84 313.88,-101.74 329.06,-100.03 347.75,-100.03 366.44,-100.03 381.62,-101.74 381.62,-103.84 381.62,-103.84 381.62,-138.16 381.62,-138.16"/>
<path fill="none" stroke="#0f766e" d="M381.62,-138.16C381.62,-136.05 366.44,-134.34 347.75,-134.34 329.06,-134.34 313.88,-136.05 313.88,-138.16"/>
<text xml:space="preserve" text-anchor="middle" x="347.75" y="-122.75" font-family="Helvetica,sans-Serif" font-size="10.00">CHIRPS</text>
<text xml:space="preserve" text-anchor="middle" x="347.75" y="-111.5" font-family="Helvetica,sans-Serif" font-size="10.00">daily rainfall</text>
</g>
<!-- prta -->
<g id="node18" class="node">
<title>prta</title>
<path fill="#dbeafe" stroke="#1d4ed8" d="M663.12,-113C663.12,-113 633.12,-113 633.12,-113 627.12,-113 621.12,-107 621.12,-101 621.12,-101 621.12,-89 621.12,-89 621.12,-83 627.12,-77 633.12,-77 633.12,-77 663.12,-77 663.12,-77 669.12,-77 675.12,-83 675.12,-89 675.12,-89 675.12,-101 675.12,-101 675.12,-107 669.12,-113 663.12,-113"/>
<text xml:space="preserve" text-anchor="middle" x="648.12" y="-91.12" font-family="Helvetica,sans-Serif" font-size="10.00">pr, ta</text>
</g>
<!-- chirps&#45;&gt;prta -->
<g id="edge16" class="edge">
<title>chirps&#45;&gt;prta</title>
<path fill="none" stroke="#64748b" d="M382.11,-118.09C438.16,-113.21 550.87,-103.39 609.6,-98.27"/>
<polygon fill="#64748b" stroke="#64748b" points="609.76,-101.77 619.42,-97.41 609.16,-94.8 609.76,-101.77"/>
<text xml:space="preserve" text-anchor="middle" x="498.5" y="-122.25" font-family="Helvetica,sans-Serif" font-size="8.00" fill="#334155">meteo_forcing</text>
<text xml:space="preserve" text-anchor="middle" x="498.5" y="-113.25" font-family="Helvetica,sans-Serif" font-size="8.00" fill="#334155">reproject</text>
</g>
<!-- era5 -->
<g id="node7" class="node">
<title>era5</title>
<path fill="#ccfbf1" stroke="#0f766e" d="M412,-61.16C412,-63.26 383.2,-64.97 347.75,-64.97 312.3,-64.97 283.5,-63.26 283.5,-61.16 283.5,-61.16 283.5,-26.84 283.5,-26.84 283.5,-24.74 312.3,-23.03 347.75,-23.03 383.2,-23.03 412,-24.74 412,-26.84 412,-26.84 412,-61.16 412,-61.16"/>
<path fill="none" stroke="#0f766e" d="M412,-61.16C412,-59.05 383.2,-57.34 347.75,-57.34 312.3,-57.34 283.5,-59.05 283.5,-61.16"/>
<text xml:space="preserve" text-anchor="middle" x="347.75" y="-45.75" font-family="Helvetica,sans-Serif" font-size="10.00">ERA5&#45;Land</text>
<text xml:space="preserve" text-anchor="middle" x="347.75" y="-34.5" font-family="Helvetica,sans-Serif" font-size="10.00">daily (T, wind, radiation…)</text>
</g>
<!-- era5&#45;&gt;prta -->
<g id="edge17" class="edge">
<title>era5&#45;&gt;prta</title>
<path fill="none" stroke="#64748b" d="M412.39,-54.88C472.44,-65.14 560.43,-80.18 609.86,-88.63"/>
<polygon fill="#64748b" stroke="#64748b" points="609.03,-92.04 619.48,-90.27 610.21,-85.14 609.03,-92.04"/>
<text xml:space="preserve" text-anchor="middle" x="498.5" y="-78.45" font-family="Helvetica,sans-Serif" font-size="8.00" fill="#334155">temperature</text>
</g>
<!-- lisvap_in -->
<g id="node19" class="node">
<title>lisvap_in</title>
<path fill="#dbeafe" stroke="#1d4ed8" d="M680.12,-52C680.12,-52 616.12,-52 616.12,-52 610.12,-52 604.12,-46 604.12,-40 604.12,-40 604.12,-28 604.12,-28 604.12,-22 610.12,-16 616.12,-16 616.12,-16 680.12,-16 680.12,-16 686.12,-16 692.12,-22 692.12,-28 692.12,-28 692.12,-40 692.12,-40 692.12,-46 686.12,-52 680.12,-52"/>
<text xml:space="preserve" text-anchor="middle" x="648.12" y="-30.12" font-family="Helvetica,sans-Serif" font-size="10.00">tn, tx, rg, ws, pd</text>
</g>
<!-- era5&#45;&gt;lisvap_in -->
<g id="edge18" class="edge">
<title>era5&#45;&gt;lisvap_in</title>
<path fill="none" stroke="#64748b" d="M412.28,-36.16C425.39,-34.84 439.13,-33.68 452,-33 499.31,-30.49 553.17,-31.02 592.3,-32.02"/>
<polygon fill="#64748b" stroke="#64748b" points="592.09,-35.51 602.18,-32.29 592.28,-28.52 592.09,-35.51"/>
<text xml:space="preserve" text-anchor="middle" x="498.5" y="-43.4" font-family="Helvetica,sans-Serif" font-size="8.00" fill="#334155">lisvap inputs</text>
<text xml:space="preserve" text-anchor="middle" x="498.5" y="-34.4" font-family="Helvetica,sans-Serif" font-size="8.00" fill="#334155">(tn,tx,rg,ws,pd)</text>
</g>
<!-- modis -->
<g id="node8" class="node">
<title>modis</title>
<path fill="#ccfbf1" stroke="#0f766e" d="M685.75,-251.16C685.75,-253.26 668.89,-254.97 648.12,-254.97 627.36,-254.97 610.5,-253.26 610.5,-251.16 610.5,-251.16 610.5,-216.84 610.5,-216.84 610.5,-214.74 627.36,-213.03 648.12,-213.03 668.89,-213.03 685.75,-214.74 685.75,-216.84 685.75,-216.84 685.75,-251.16 685.75,-251.16"/>
<path fill="none" stroke="#0f766e" d="M685.75,-251.16C685.75,-249.05 668.89,-247.34 648.12,-247.34 627.36,-247.34 610.5,-249.05 610.5,-251.16"/>
<text xml:space="preserve" text-anchor="middle" x="648.12" y="-235.75" font-family="Helvetica,sans-Serif" font-size="10.00">MODIS LAI</text>
<text xml:space="preserve" text-anchor="middle" x="648.12" y="-224.5" font-family="Helvetica,sans-Serif" font-size="10.00">(MCD15A3H)</text>
</g>
<!-- lai -->
<g id="node22" class="node">
<title>lai</title>
<path fill="#dbeafe" stroke="#1d4ed8" d="M963.25,-304C963.25,-304 888.75,-304 888.75,-304 882.75,-304 876.75,-298 876.75,-292 876.75,-292 876.75,-280 876.75,-280 876.75,-274 882.75,-268 888.75,-268 888.75,-268 963.25,-268 963.25,-268 969.25,-268 975.25,-274 975.25,-280 975.25,-280 975.25,-292 975.25,-292 975.25,-298 969.25,-304 963.25,-304"/>
<text xml:space="preserve" text-anchor="middle" x="926" y="-282.12" font-family="Helvetica,sans-Serif" font-size="10.00">lai_forest, lai_other</text>
</g>
<!-- modis&#45;&gt;lai -->
<g id="edge22" class="edge">
<title>modis&#45;&gt;lai</title>
<path fill="none" stroke="#64748b" d="M686.23,-228.93C724.32,-224.97 784.98,-222.11 835.25,-235.5 854.99,-240.76 875,-251.39 891.09,-261.54"/>
<polygon fill="#64748b" stroke="#64748b" points="889.02,-264.37 899.3,-266.92 892.86,-258.51 889.02,-264.37"/>
<text xml:space="preserve" text-anchor="middle" x="793.25" y="-247.4" font-family="Helvetica,sans-Serif" font-size="8.00" fill="#334155">lai_forcing</text>
<text xml:space="preserve" text-anchor="middle" x="793.25" y="-238.4" font-family="Helvetica,sans-Serif" font-size="8.00" fill="#334155">resample → monthly</text>
</g>
<!-- area&#45;&gt;ldd -->
<g id="edge6" class="edge">
<title>area&#45;&gt;ldd</title>
<path fill="none" stroke="#64748b" stroke-dasharray="5,2" d="M382.11,-743.64C442.02,-768.14 566.66,-819.1 620.93,-841.29"/>
<text xml:space="preserve" text-anchor="middle" x="498.5" y="-810.46" font-family="Helvetica,sans-Serif" font-size="8.00" fill="#334155">mask</text>
</g>
<!-- lat -->
<g id="node21" class="node">
<title>lat</title>
<path fill="#dbeafe" stroke="#1d4ed8" d="M663.12,-174C663.12,-174 633.12,-174 633.12,-174 627.12,-174 621.12,-168 621.12,-162 621.12,-162 621.12,-150 621.12,-150 621.12,-144 627.12,-138 633.12,-138 633.12,-138 663.12,-138 663.12,-138 669.12,-138 675.12,-144 675.12,-150 675.12,-150 675.12,-162 675.12,-162 675.12,-168 669.12,-174 663.12,-174"/>
<text xml:space="preserve" text-anchor="middle" x="648.12" y="-152.12" font-family="Helvetica,sans-Serif" font-size="10.00">lat grid</text>
</g>
<!-- area&#45;&gt;lat -->
<g id="edge19" class="edge">
<title>area&#45;&gt;lat</title>
<path fill="none" stroke="#64748b" d="M381.83,-716.99C391.94,-712.32 402.8,-706.56 412,-700 480.82,-650.9 509.67,-640.81 545,-564 612.68,-416.86 493.16,-339.57 577,-201 584.8,-188.11 597.86,-178.26 610.61,-171.11"/>
<polygon fill="#64748b" stroke="#64748b" points="612.02,-174.32 619.32,-166.64 608.82,-168.09 612.02,-174.32"/>
<text xml:space="preserve" text-anchor="middle" x="498.5" y="-673.53" font-family="Helvetica,sans-Serif" font-size="8.00" fill="#334155">generate_lat_nc</text>
</g>
<!-- lisflood -->
<g id="node24" class="node">
<title>lisflood</title>
<polygon fill="#ede9fe" stroke="#6d28d9" points="1422.22,-584 1340.97,-632.17 1178.49,-632.17 1097.25,-584 1178.49,-535.83 1340.97,-535.83 1422.22,-584"/>
<text xml:space="preserve" text-anchor="middle" x="1259.73" y="-598.1" font-family="Helvetica,sans-Serif" font-size="12.00">LISFLOOD</text>
<text xml:space="preserve" text-anchor="middle" x="1259.73" y="-585.35" font-family="Helvetica,sans-Serif" font-size="12.00">soil water balance + Xinanjiang</text>
<text xml:space="preserve" text-anchor="middle" x="1259.73" y="-572.6" font-family="Helvetica,sans-Serif" font-size="12.00">infiltration + 2 GW linear reservoirs</text>
<text xml:space="preserve" text-anchor="middle" x="1259.73" y="-559.85" font-family="Helvetica,sans-Serif" font-size="12.00">+ kinematic&#45;wave routing</text>
</g>
<!-- area&#45;&gt;lisflood -->
<g id="edge26" class="edge">
<title>area&#45;&gt;lisflood</title>
<path fill="none" stroke="#7c3aed" stroke-width="2" d="M381.76,-733.35C485.08,-742.63 810.11,-762.5 1057.25,-675 1092.11,-662.66 1129.26,-646.72 1162.05,-631.64"/>
<polygon fill="#7c3aed" stroke="#7c3aed" stroke-width="2" points="1161.45,-635 1167.54,-629.1 1159.1,-629.92 1161.45,-635"/>
<text xml:space="preserve" text-anchor="middle" x="793.25" y="-736.1" font-family="Helvetica,sans-Serif" font-size="8.00" fill="#5b21b6">grid + routing</text>
</g>
<!-- outlets -->
<g id="node23" class="node">
<title>outlets</title>
<path fill="#dbeafe" stroke="#1d4ed8" d="M941,-654C941,-654 911,-654 911,-654 905,-654 899,-648 899,-642 899,-642 899,-630 899,-630 899,-624 905,-618 911,-618 911,-618 941,-618 941,-618 947,-618 953,-624 953,-630 953,-630 953,-642 953,-642 953,-648 947,-654 941,-654"/>
<text xml:space="preserve" text-anchor="middle" x="926" y="-637.75" font-family="Helvetica,sans-Serif" font-size="10.00">outlets</text>
<text xml:space="preserve" text-anchor="middle" x="926" y="-626.5" font-family="Helvetica,sans-Serif" font-size="10.00">(gauge)</text>
</g>
<!-- dem&#45;&gt;outlets -->
<g id="edge24" class="edge">
<title>dem&#45;&gt;outlets</title>
<path fill="none" stroke="#64748b" d="M379.81,-663.21C400.24,-659.64 427.62,-655.32 452,-653 613.26,-637.66 806.64,-635.87 887.05,-635.85"/>
<polygon fill="#64748b" stroke="#64748b" points="887,-639.35 897.01,-635.86 887.01,-632.35 887,-639.35"/>
<text xml:space="preserve" text-anchor="middle" x="648.12" y="-653.98" font-family="Helvetica,sans-Serif" font-size="8.00" fill="#334155">make_outlets</text>
<text xml:space="preserve" text-anchor="middle" x="648.12" y="-644.98" font-family="Helvetica,sans-Serif" font-size="8.00" fill="#334155">snap to max flow&#45;acc</text>
</g>
<!-- dem&#45;&gt;lisflood -->
<g id="edge27" class="edge">
<title>dem&#45;&gt;lisflood</title>
<path fill="none" stroke="#7c3aed" stroke-width="2" d="M380.2,-675.94C400.56,-680.07 427.71,-684.9 452,-687 493.18,-690.56 503.68,-687.94 545,-687 740.6,-682.55 791.92,-700.06 984.75,-667 1040.2,-657.49 1100.19,-640.16 1149.86,-623.79"/>
<polygon fill="#7c3aed" stroke="#7c3aed" stroke-width="2" points="1149.11,-626.99 1155.81,-621.81 1147.34,-621.68 1149.11,-626.99"/>
<text xml:space="preserve" text-anchor="middle" x="793.25" y="-689.15" font-family="Helvetica,sans-Serif" font-size="8.00" fill="#5b21b6">grid + routing</text>
</g>
<!-- ldd&#45;&gt;lisflood -->
<g id="edge28" class="edge">
<title>ldd&#45;&gt;lisflood</title>
<path fill="none" stroke="#7c3aed" stroke-width="2" d="M675.3,-855.81C742.87,-864.38 926.99,-879.54 1057.25,-813 1132.76,-774.43 1192.64,-694.52 1226.89,-640.07"/>
<polygon fill="#7c3aed" stroke="#7c3aed" stroke-width="2" points="1228.32,-643.07 1230.17,-634.8 1223.57,-640.12 1228.32,-643.07"/>
<text xml:space="preserve" text-anchor="middle" x="926" y="-862.4" font-family="Helvetica,sans-Serif" font-size="8.00" fill="#5b21b6">grid + routing</text>
</g>
<!-- grad&#45;&gt;lisflood -->
<g id="edge29" class="edge">
<title>grad&#45;&gt;lisflood</title>
<path fill="none" stroke="#7c3aed" stroke-width="2" d="M375.2,-793.4C472.04,-801.04 814.26,-817.81 1057.25,-700 1095.91,-681.26 1137.26,-658.04 1172.37,-637.32"/>
<polygon fill="#7c3aed" stroke="#7c3aed" stroke-width="2" points="1172.17,-640.69 1177.62,-634.21 1169.31,-635.88 1172.17,-640.69"/>
<text xml:space="preserve" text-anchor="middle" x="793.25" y="-785.27" font-family="Helvetica,sans-Serif" font-size="8.00" fill="#5b21b6">grid + routing</text>
</g>
<!-- elvstd&#45;&gt;lisflood -->
<g id="edge30" class="edge">
<title>elvstd&#45;&gt;lisflood</title>
<path fill="none" stroke="#7c3aed" stroke-width="2" d="M375.04,-858.15C463.01,-877.65 754.54,-933.54 984.75,-876 1104.64,-846.03 1190.14,-716.88 1231.2,-640.74"/>
<polygon fill="#7c3aed" stroke="#7c3aed" stroke-width="2" points="1232.81,-643.69 1234.09,-635.31 1227.86,-641.06 1232.81,-643.69"/>
<text xml:space="preserve" text-anchor="middle" x="793.25" y="-902.7" font-family="Helvetica,sans-Serif" font-size="8.00" fill="#5b21b6">grid + routing</text>
</g>
<!-- chan&#45;&gt;outlets -->
<g id="edge25" class="edge">
<title>chan&#45;&gt;outlets</title>
<path fill="none" stroke="#64748b" stroke-dasharray="5,2" d="M694.86,-565.29C712.3,-572.99 732.49,-581.4 751.25,-588 802.62,-606.07 864.43,-621.75 898.75,-629.94"/>
</g>
<!-- chan&#45;&gt;lisflood -->
<g id="edge31" class="edge">
<title>chan&#45;&gt;lisflood</title>
<path fill="none" stroke="#7c3aed" stroke-width="2" d="M711.5,-548.09C802.83,-554.09 975.88,-565.44 1103.02,-573.78"/>
<polygon fill="#7c3aed" stroke="#7c3aed" stroke-width="2" points="1101.29,-576.47 1109.45,-574.2 1101.65,-570.89 1101.29,-576.47"/>
<text xml:space="preserve" text-anchor="middle" x="926" y="-567.4" font-family="Helvetica,sans-Serif" font-size="8.00" fill="#5b21b6">channel geom.</text>
</g>
<!-- frac&#45;&gt;lcpar -->
<g id="edge13" class="edge">
<title>frac&#45;&gt;lcpar</title>
<path fill="none" stroke="#64748b" stroke-dasharray="5,2" d="M702.32,-366C752.89,-366 828.28,-366 877.04,-366"/>
</g>
<!-- frac&#45;&gt;soilhyd -->
<g id="edge15" class="edge">
<title>frac&#45;&gt;soilhyd</title>
<path fill="none" stroke="#64748b" stroke-dasharray="5,2" d="M702.32,-382.2C748.51,-396.26 815.4,-416.63 863.81,-431.37"/>
<polygon fill="#64748b" stroke="#64748b" points="862.73,-434.7 873.31,-434.26 864.77,-428 862.73,-434.7"/>
<text xml:space="preserve" text-anchor="middle" x="793.25" y="-430.83" font-family="Helvetica,sans-Serif" font-size="8.00" fill="#334155">forest/other</text>
<text xml:space="preserve" text-anchor="middle" x="793.25" y="-421.83" font-family="Helvetica,sans-Serif" font-size="8.00" fill="#334155">split</text>
</g>
<!-- frac&#45;&gt;lai -->
<g id="edge23" class="edge">
<title>frac&#45;&gt;lai</title>
<path fill="none" stroke="#64748b" stroke-dasharray="5,2" d="M702.32,-350.58C749.09,-337.01 817.09,-317.29 865.62,-303.22"/>
<polygon fill="#64748b" stroke="#64748b" points="866.51,-306.61 875.14,-300.46 864.56,-299.88 866.51,-306.61"/>
<text xml:space="preserve" text-anchor="middle" x="793.25" y="-345.92" font-family="Helvetica,sans-Serif" font-size="8.00" fill="#334155">forest/other</text>
<text xml:space="preserve" text-anchor="middle" x="793.25" y="-336.92" font-family="Helvetica,sans-Serif" font-size="8.00" fill="#334155">mask</text>
</g>
<!-- frac&#45;&gt;lisflood -->
<g id="edge32" class="edge">
<title>frac&#45;&gt;lisflood</title>
<path fill="none" stroke="#7c3aed" stroke-width="2" d="M681.24,-384.39C694.27,-393.03 708.7,-404.24 719.25,-417 740.53,-442.74 724.9,-464.47 751.25,-485 780.22,-507.57 979.55,-541.74 1119.58,-563.46"/>
<polygon fill="#7c3aed" stroke="#7c3aed" stroke-width="2" points="1117.4,-565.95 1125.73,-564.41 1118.25,-560.42 1117.4,-565.95"/>
</g>
<!-- lcpar&#45;&gt;lisflood -->
<g id="edge33" class="edge">
<title>lcpar&#45;&gt;lisflood</title>
<path fill="none" stroke="#7c3aed" stroke-width="2" d="M955,-384.4C1003.45,-416.24 1104.68,-482.76 1176.95,-530.26"/>
<polygon fill="#7c3aed" stroke="#7c3aed" stroke-width="2" points="1173.98,-531.66 1182.21,-533.71 1177.06,-526.98 1173.98,-531.66"/>
</g>
<!-- soilhyd&#45;&gt;lisflood -->
<g id="edge34" class="edge">
<title>soilhyd&#45;&gt;lisflood</title>
<path fill="none" stroke="#7c3aed" stroke-width="2" d="M977.23,-465.22C1001.6,-472.95 1031.18,-482.84 1057.25,-493 1091.31,-506.27 1127.91,-522.26 1160.45,-537.11"/>
<polygon fill="#7c3aed" stroke="#7c3aed" stroke-width="2" points="1157.89,-539.02 1166.32,-539.8 1160.22,-533.93 1157.89,-539.02"/>
<text xml:space="preserve" text-anchor="middle" x="1037" y="-494.4" font-family="Helvetica,sans-Serif" font-size="8.00" fill="#5b21b6">soil params</text>
</g>
<!-- prta&#45;&gt;lisflood -->
<g id="edge35" class="edge">
<title>prta&#45;&gt;lisflood</title>
<path fill="none" stroke="#7c3aed" stroke-width="2" d="M675.36,-103.83C689.1,-109.12 705.82,-116.64 719.25,-126 736.01,-137.68 734.17,-147.79 751.25,-159 843.98,-219.83 894.77,-182.17 984.75,-247 1092.04,-324.29 1180.9,-453.82 1226.24,-527.76"/>
<polygon fill="#7c3aed" stroke="#7c3aed" stroke-width="2" points="1222.89,-527.65 1229.45,-533.03 1227.68,-524.74 1222.89,-527.65"/>
<text xml:space="preserve" text-anchor="middle" x="926" y="-248.4" font-family="Helvetica,sans-Serif" font-size="8.00" fill="#5b21b6">forcing</text>
</g>
<!-- et0 -->
<g id="node20" class="node">
<title>et0</title>
<path fill="#dbeafe" stroke="#1d4ed8" d="M951.25,-143C951.25,-143 900.75,-143 900.75,-143 894.75,-143 888.75,-137 888.75,-131 888.75,-131 888.75,-119 888.75,-119 888.75,-113 894.75,-107 900.75,-107 900.75,-107 951.25,-107 951.25,-107 957.25,-107 963.25,-113 963.25,-119 963.25,-119 963.25,-131 963.25,-131 963.25,-137 957.25,-143 951.25,-143"/>
<text xml:space="preserve" text-anchor="middle" x="926" y="-126.75" font-family="Helvetica,sans-Serif" font-size="10.00">et, es, e0</text>
<text xml:space="preserve" text-anchor="middle" x="926" y="-115.5" font-family="Helvetica,sans-Serif" font-size="10.00">(potential ET)</text>
</g>
<!-- lisvap_in&#45;&gt;et0 -->
<g id="edge20" class="edge">
<title>lisvap_in&#45;&gt;et0</title>
<path fill="none" stroke="#64748b" d="M692.53,-48.32C742.86,-64.92 825.53,-92.19 877.53,-109.34"/>
<polygon fill="#64748b" stroke="#64748b" points="876.42,-112.66 887.02,-112.47 878.62,-106.01 876.42,-112.66"/>
<text xml:space="preserve" text-anchor="middle" x="793.25" y="-103.37" font-family="Helvetica,sans-Serif" font-size="8.00" fill="#334155">LISVAP</text>
<text xml:space="preserve" text-anchor="middle" x="793.25" y="-94.37" font-family="Helvetica,sans-Serif" font-size="8.00" fill="#334155">Penman&#45;Monteith</text>
</g>
<!-- et0&#45;&gt;lisflood -->
<g id="edge36" class="edge">
<title>et0&#45;&gt;lisflood</title>
<path fill="none" stroke="#7c3aed" stroke-width="2" d="M963.72,-131.17C992.17,-137.61 1031.04,-150.21 1057.25,-174 1164.6,-271.42 1221.37,-438.74 1245.06,-526.48"/>
<polygon fill="#7c3aed" stroke="#7c3aed" stroke-width="2" points="1241.92,-525.55 1246.68,-532.56 1247.33,-524.11 1241.92,-525.55"/>
</g>
<!-- lat&#45;&gt;et0 -->
<g id="edge21" class="edge">
<title>lat&#45;&gt;et0</title>
<path fill="none" stroke="#64748b" stroke-dasharray="5,2" d="M675.58,-153.03C725.21,-147.45 832.35,-135.41 888.69,-129.08"/>
<text xml:space="preserve" text-anchor="middle" x="793.25" y="-145.59" font-family="Helvetica,sans-Serif" font-size="8.00" fill="#334155">Ra</text>
</g>
<!-- lai&#45;&gt;lisflood -->
<g id="edge37" class="edge">
<title>lai&#45;&gt;lisflood</title>
<path fill="none" stroke="#7c3aed" stroke-width="2" d="M949.69,-304.45C960.42,-313.28 973.35,-324.07 984.75,-334 1060.18,-399.7 1144.96,-477.73 1199.97,-528.93"/>
<polygon fill="#7c3aed" stroke="#7c3aed" stroke-width="2" points="1196.88,-529.88 1204.64,-533.28 1200.7,-525.78 1196.88,-529.88"/>
</g>
<!-- outlets&#45;&gt;lisflood -->
<g id="edge38" class="edge">
<title>outlets&#45;&gt;lisflood</title>
<path fill="none" stroke="#7c3aed" stroke-width="2" d="M953.31,-631.88C989.75,-626.16 1058.23,-615.43 1121.12,-605.57"/>
<polygon fill="#7c3aed" stroke="#7c3aed" stroke-width="2" points="1119.9,-608.6 1127.37,-604.59 1119.03,-603.06 1119.9,-608.6"/>
<text xml:space="preserve" text-anchor="middle" x="1037" y="-622.03" font-family="Helvetica,sans-Serif" font-size="8.00" fill="#5b21b6">gauge loc.</text>
</g>
<!-- dis -->
<g id="node25" class="node">
<title>dis</title>
<path fill="#dcfce7" stroke="#15803d" d="M1676.47,-698C1676.47,-698 1585.47,-698 1585.47,-698 1579.47,-698 1573.47,-692 1573.47,-686 1573.47,-686 1573.47,-674 1573.47,-674 1573.47,-668 1579.47,-662 1585.47,-662 1585.47,-662 1676.47,-662 1676.47,-662 1682.47,-662 1688.47,-668 1688.47,-674 1688.47,-674 1688.47,-686 1688.47,-686 1688.47,-692 1682.47,-698 1676.47,-698"/>
<text xml:space="preserve" text-anchor="middle" x="1630.97" y="-681.75" font-family="Helvetica,sans-Serif" font-size="10.00">dis.tss</text>
<text xml:space="preserve" text-anchor="middle" x="1630.97" y="-670.5" font-family="Helvetica,sans-Serif" font-size="10.00">(discharge hydrograph)</text>
</g>
<!-- lisflood&#45;&gt;dis -->
<g id="edge39" class="edge">
<title>lisflood&#45;&gt;dis</title>
<path fill="none" stroke="#15803d" stroke-width="2" d="M1373.52,-613.32C1435.97,-629.56 1511.41,-649.18 1564.24,-662.91"/>
<polygon fill="#15803d" stroke="#15803d" stroke-width="2" points="1561.8,-665.17 1570.25,-664.47 1563.21,-659.75 1561.8,-665.17"/>
<text xml:space="preserve" text-anchor="middle" x="1497.84" y="-664.65" font-family="Helvetica,sans-Serif" font-size="8.00" fill="#166534">kinematic&#45;wave</text>
<text xml:space="preserve" text-anchor="middle" x="1497.84" y="-655.65" font-family="Helvetica,sans-Serif" font-size="8.00" fill="#166534">routing</text>
</g>
<!-- statemaps -->
<g id="node26" class="node">
<title>statemaps</title>
<path fill="#dcfce7" stroke="#15803d" d="M1674.59,-636.88C1674.59,-636.88 1587.34,-636.88 1587.34,-636.88 1581.34,-636.88 1575.34,-630.88 1575.34,-624.88 1575.34,-624.88 1575.34,-607.12 1575.34,-607.12 1575.34,-601.12 1581.34,-595.12 1587.34,-595.12 1587.34,-595.12 1674.59,-595.12 1674.59,-595.12 1680.59,-595.12 1686.59,-601.12 1686.59,-607.12 1686.59,-607.12 1686.59,-624.88 1686.59,-624.88 1686.59,-630.88 1680.59,-636.88 1674.59,-636.88"/>
<text xml:space="preserve" text-anchor="middle" x="1630.97" y="-623.38" font-family="Helvetica,sans-Serif" font-size="10.00">state maps</text>
<text xml:space="preserve" text-anchor="middle" x="1630.97" y="-612.12" font-family="Helvetica,sans-Serif" font-size="10.00">(soil moisture, UZ/LZ,</text>
<text xml:space="preserve" text-anchor="middle" x="1630.97" y="-600.88" font-family="Helvetica,sans-Serif" font-size="10.00">snow, frost, .end.nc)</text>
</g>
<!-- lisflood&#45;&gt;statemaps -->
<g id="edge40" class="edge">
<title>lisflood&#45;&gt;statemaps</title>
<path fill="none" stroke="#15803d" stroke-width="2" d="M1402.43,-596.28C1458.82,-601.17 1520.87,-606.54 1565.9,-610.45"/>
<polygon fill="#15803d" stroke="#15803d" stroke-width="2" points="1564.02,-613.1 1572.23,-611 1564.5,-607.52 1564.02,-613.1"/>
<text xml:space="preserve" text-anchor="middle" x="1497.84" y="-617.82" font-family="Helvetica,sans-Serif" font-size="8.00" fill="#166534">repStateMaps /</text>
<text xml:space="preserve" text-anchor="middle" x="1497.84" y="-608.82" font-family="Helvetica,sans-Serif" font-size="8.00" fill="#166534">repEndMaps</text>
</g>
<!-- fluxmaps -->
<g id="node27" class="node">
<title>fluxmaps</title>
<path fill="#dcfce7" stroke="#15803d" d="M1672.72,-570C1672.72,-570 1589.22,-570 1589.22,-570 1583.22,-570 1577.22,-564 1577.22,-558 1577.22,-558 1577.22,-546 1577.22,-546 1577.22,-540 1583.22,-534 1589.22,-534 1589.22,-534 1672.72,-534 1672.72,-534 1678.72,-534 1684.72,-540 1684.72,-546 1684.72,-546 1684.72,-558 1684.72,-558 1684.72,-564 1678.72,-570 1672.72,-570"/>
<text xml:space="preserve" text-anchor="middle" x="1630.97" y="-553.75" font-family="Helvetica,sans-Serif" font-size="10.00">flux / rate maps</text>
<text xml:space="preserve" text-anchor="middle" x="1630.97" y="-542.5" font-family="Helvetica,sans-Serif" font-size="10.00">(runoff, ET, recharge)</text>
</g>
<!-- lisflood&#45;&gt;fluxmaps -->
<g id="edge41" class="edge">
<title>lisflood&#45;&gt;fluxmaps</title>
<path fill="none" stroke="#15803d" stroke-width="2" d="M1402.43,-571.72C1459.58,-566.77 1522.54,-561.31 1567.71,-557.4"/>
<polygon fill="#15803d" stroke="#15803d" stroke-width="2" points="1566.33,-560.33 1574.06,-556.85 1565.85,-554.75 1566.33,-560.33"/>
<text xml:space="preserve" text-anchor="middle" x="1497.84" y="-567.48" font-family="Helvetica,sans-Serif" font-size="8.00" fill="#166534">repRateMaps</text>
</g>
<!-- upstss -->
<g id="node28" class="node">
<title>upstss</title>
<path fill="#dcfce7" stroke="#15803d" d="M1671.22,-509C1671.22,-509 1590.72,-509 1590.72,-509 1584.72,-509 1578.72,-503 1578.72,-497 1578.72,-497 1578.72,-485 1578.72,-485 1578.72,-479 1584.72,-473 1590.72,-473 1590.72,-473 1671.22,-473 1671.22,-473 1677.22,-473 1683.22,-479 1683.22,-485 1683.22,-485 1683.22,-497 1683.22,-497 1683.22,-503 1677.22,-509 1671.22,-509"/>
<text xml:space="preserve" text-anchor="middle" x="1630.97" y="-492.75" font-family="Helvetica,sans-Serif" font-size="10.00">upstream TSS</text>
<text xml:space="preserve" text-anchor="middle" x="1630.97" y="-481.5" font-family="Helvetica,sans-Serif" font-size="10.00">(rain, ET, runoff avg)</text>
</g>
<!-- lisflood&#45;&gt;upstss -->
<g id="edge42" class="edge">
<title>lisflood&#45;&gt;upstss</title>
<path fill="none" stroke="#15803d" stroke-width="2" d="M1374.53,-555.34C1438.69,-539.18 1516.31,-519.63 1569.02,-506.35"/>
<polygon fill="#15803d" stroke="#15803d" stroke-width="2" points="1568.23,-509.44 1575.31,-504.77 1566.86,-504.01 1568.23,-509.44"/>
<text xml:space="preserve" text-anchor="middle" x="1497.84" y="-533.33" font-family="Helvetica,sans-Serif" font-size="8.00" fill="#166534">repRateUpsGauges</text>
</g>
</g>
</svg>
